HIERARCHY
ROOT mixamorig:Hips
{
	OFFSET 0.000000 104.274902 0.000000
	CHANNELS 6 Xposition Yposition Zposition Xrotation Yrotation Zrotation
	JOINT mixamorig:Spine
	{
		OFFSET 0.000000 10.181549 0.131524
		CHANNELS 6 Xposition Yposition Zposition Xrotation Yrotation Zrotation
		JOINT mixamorig:Spine1
		{
			OFFSET 0.000000 9.893990 -1.470706
			CHANNELS 3 Xrotation Yrotation Zrotation
			JOINT mixamorig:Spine2
			{
				OFFSET 0.000000 9.220787 -1.370636
				CHANNELS 3 Xrotation Yrotation Zrotation
				JOINT mixamorig:Neck
				{
					OFFSET 0.000000 16.740372 -2.049023
					CHANNELS 6 Xposition Yposition Zposition Xrotation Yrotation Zrotation
					JOINT mixamorig:Head
					{
						OFFSET 0.000000 9.617859 1.684975
						CHANNELS 6 Xposition Yposition Zposition Xrotation Yrotation Zrotation
						JOINT mixamorig:HeadTop_End
						{
							OFFSET 0.000000 22.037369 7.501070
							CHANNELS 6 Xposition Yposition Zposition Xrotation Yrotation Zrotation
							End Site
							{
								OFFSET 0.000000 23.106567 -2.828246
							}
						}
					}
				}
				JOINT mixamorig:RightShoulder
				{
					OFFSET -4.570000 11.014862 -2.160841
					CHANNELS 6 Xposition Yposition Zposition Xrotation Yrotation Zrotation
					JOINT mixamorig:RightArm
					{
						OFFSET -10.592869 -0.524796 -2.232105
						CHANNELS 3 Xrotation Yrotation Zrotation
						JOINT mixamorig:RightForeArm
						{
							OFFSET -27.841499 0.000000 0.000000
							CHANNELS 3 Xrotation Yrotation Zrotation
							JOINT mixamorig:RightHand
							{
								OFFSET -28.328800 0.000000 0.000000
								CHANNELS 3 Xrotation Yrotation Zrotation
								JOINT mixamorig:RightHandThumb1
								{
									OFFSET -2.464798 -1.573990 2.681910
									CHANNELS 6 Xposition Yposition Zposition Xrotation Yrotation Zrotation
									JOINT mixamorig:RightHandThumb2
									{
										OFFSET -3.244789 -1.873367 1.873378
										CHANNELS 3 Xrotation Yrotation Zrotation
										JOINT mixamorig:RightHandThumb3
										{
											OFFSET -2.646255 -1.527817 1.527816
											CHANNELS 3 Xrotation Yrotation Zrotation
											JOINT mixamorig:RightHandThumb4
											{
												OFFSET -1.994583 -1.151581 1.151575
												CHANNELS 3 Xrotation Yrotation Zrotation
												End Site
												{
													OFFSET -1.860176 -1.142715 1.365483
												}
											}
										}
									}
								}
								JOINT mixamorig:RightHandIndex1
								{
									OFFSET -9.108299 -0.517883 2.259803
									CHANNELS 6 Xposition Yposition Zposition Xrotation Yrotation Zrotation
									JOINT mixamorig:RightHandIndex2
									{
										OFFSET -3.700005 0.000000 0.000000
										CHANNELS 3 Xrotation Yrotation Zrotation
										JOINT mixamorig:RightHandIndex3
										{
											OFFSET -2.849998 0.000000 0.000000
											CHANNELS 3 Xrotation Yrotation Zrotation
											JOINT mixamorig:RightHandIndex4
											{
												OFFSET -2.772202 0.000000 0.000000
												CHANNELS 3 Xrotation Yrotation Zrotation
												End Site
												{
													OFFSET -2.772202 0.000000 -0.000484
												}
											}
										}
									}
								}
								JOINT mixamorig:RightHandMiddle1
								{
									OFFSET -9.532501 0.000000 0.000000
									CHANNELS 6 Xposition Yposition Zposition Xrotation Yrotation Zrotation
									JOINT mixamorig:RightHandMiddle2
									{
										OFFSET -3.699997 0.000000 0.000000
										CHANNELS 3 Xrotation Yrotation Zrotation
										JOINT mixamorig:RightHandMiddle3
										{
											OFFSET -2.950005 0.000000 0.000000
											CHANNELS 3 Xrotation Yrotation Zrotation
											JOINT mixamorig:RightHandMiddle4
											{
												OFFSET -2.946602 0.000000 0.000000
												CHANNELS 3 Xrotation Yrotation Zrotation
												End Site
												{
													OFFSET -2.946594 0.000000 -0.000982
												}
											}
										}
									}
								}
								JOINT mixamorig:RightHandRing1
								{
									OFFSET -9.103600 -0.043106 -1.865100
									CHANNELS 6 Xposition Yposition Zposition Xrotation Yrotation Zrotation
									JOINT mixamorig:RightHandRing2
									{
										OFFSET -3.379303 0.000000 0.000000
										CHANNELS 3 Xrotation Yrotation Zrotation
										JOINT mixamorig:RightHandRing3
										{
											OFFSET -2.889702 0.000000 0.000000
											CHANNELS 3 Xrotation Yrotation Zrotation
											JOINT mixamorig:RightHandRing4
											{
												OFFSET -2.638794 0.000000 0.000000
												CHANNELS 3 Xrotation Yrotation Zrotation
												End Site
												{
													OFFSET -2.638794 0.000000 0.004219
												}
											}
										}
									}
								}
								JOINT mixamorig:RightHandPinky1
								{
									OFFSET -8.076698 -0.486725 -3.806297
									CHANNELS 6 Xposition Yposition Zposition Xrotation Yrotation Zrotation
									JOINT mixamorig:RightHandPinky2
									{
										OFFSET -3.600006 0.000000 0.000000
										CHANNELS 3 Xrotation Yrotation Zrotation
										JOINT mixamorig:RightHandPinky3
										{
											OFFSET -2.099998 0.000000 0.000000
											CHANNELS 3 Xrotation Yrotation Zrotation
											JOINT mixamorig:RightHandPinky4
											{
												OFFSET -2.115799 0.000000 0.000000
												CHANNELS 3 Xrotation Yrotation Zrotation
												End Site
												{
													OFFSET -2.115799 0.000000 0.000174
												}
											}
										}
									}
								}
							}
						}
					}
				}
				JOINT mixamorig:LeftShoulder
				{
					OFFSET 4.570400 11.014664 -2.160817
					CHANNELS 6 Xposition Yposition Zposition Xrotation Yrotation Zrotation
					JOINT mixamorig:LeftArm
					{
						OFFSET 10.592365 -0.524597 -2.232113
						CHANNELS 3 Xrotation Yrotation Zrotation
						JOINT mixamorig:LeftForeArm
						{
							OFFSET 27.841499 0.000000 0.000000
							CHANNELS 3 Xrotation Yrotation Zrotation
							JOINT mixamorig:LeftHand
							{
								OFFSET 28.328804 0.000000 0.000000
								CHANNELS 3 Xrotation Yrotation Zrotation
								JOINT mixamorig:LeftHandThumb1
								{
									OFFSET 2.466095 -1.576202 2.681697
									CHANNELS 6 Xposition Yposition Zposition Xrotation Yrotation Zrotation
									JOINT mixamorig:LeftHandThumb2
									{
										OFFSET 3.243317 -1.872528 1.872528
										CHANNELS 3 Xrotation Yrotation Zrotation
										JOINT mixamorig:LeftHandThumb3
										{
											OFFSET 2.647881 -1.528763 1.528755
											CHANNELS 3 Xrotation Yrotation Zrotation
											JOINT mixamorig:LeftHandThumb4
											{
												OFFSET 1.998924 -1.154068 1.154079
												CHANNELS 3 Xrotation Yrotation Zrotation
												End Site
												{
													OFFSET 1.884041 -1.149155 1.337651
												}
											}
										}
									}
								}
								JOINT mixamorig:LeftHandIndex1
								{
									OFFSET 9.109299 -0.518005 2.259899
									CHANNELS 6 Xposition Yposition Zposition Xrotation Yrotation Zrotation
									JOINT mixamorig:LeftHandIndex2
									{
										OFFSET 3.699997 0.000000 0.000000
										CHANNELS 3 Xrotation Yrotation Zrotation
										JOINT mixamorig:LeftHandIndex3
										{
											OFFSET 2.849998 0.000000 0.000000
											CHANNELS 3 Xrotation Yrotation Zrotation
											JOINT mixamorig:LeftHandIndex4
											{
												OFFSET 2.774902 0.000000 0.000000
												CHANNELS 3 Xrotation Yrotation Zrotation
												End Site
												{
													OFFSET 2.774902 0.000000 -0.000072
												}
											}
										}
									}
								}
								JOINT mixamorig:LeftHandMiddle1
								{
									OFFSET 9.533394 0.000000 0.000000
									CHANNELS 6 Xposition Yposition Zposition Xrotation Yrotation Zrotation
									JOINT mixamorig:LeftHandMiddle2
									{
										OFFSET 3.700005 0.000000 0.000000
										CHANNELS 3 Xrotation Yrotation Zrotation
										JOINT mixamorig:LeftHandMiddle3
										{
											OFFSET 2.949997 0.000000 0.000000
											CHANNELS 3 Xrotation Yrotation Zrotation
											JOINT mixamorig:LeftHandMiddle4
											{
												OFFSET 2.952904 0.000000 0.000000
												CHANNELS 3 Xrotation Yrotation Zrotation
												End Site
												{
													OFFSET 2.952896 0.000000 0.000165
												}
											}
										}
									}
								}
								JOINT mixamorig:LeftHandRing1
								{
									OFFSET 9.104500 -0.042999 -1.865100
									CHANNELS 6 Xposition Yposition Zposition Xrotation Yrotation Zrotation
									JOINT mixamorig:LeftHandRing2
									{
										OFFSET 3.149994 0.000000 0.000000
										CHANNELS 3 Xrotation Yrotation Zrotation
										JOINT mixamorig:LeftHandRing3
										{
											OFFSET 2.950005 0.000000 0.000000
											CHANNELS 3 Xrotation Yrotation Zrotation
											JOINT mixamorig:LeftHandRing4
											{
												OFFSET 2.644295 0.000000 0.000000
												CHANNELS 3 Xrotation Yrotation Zrotation
												End Site
												{
													OFFSET 2.644302 0.000000 0.000083
												}
											}
										}
									}
								}
								JOINT mixamorig:LeftHandPinky1
								{
									OFFSET 8.077797 -0.486893 -3.806301
									CHANNELS 6 Xposition Yposition Zposition Xrotation Yrotation Zrotation
									JOINT mixamorig:LeftHandPinky2
									{
										OFFSET 3.599998 0.000000 0.000000
										CHANNELS 3 Xrotation Yrotation Zrotation
										JOINT mixamorig:LeftHandPinky3
										{
											OFFSET 2.099998 0.000000 0.000000
											CHANNELS 3 Xrotation Yrotation Zrotation
											JOINT mixamorig:LeftHandPinky4
											{
												OFFSET 2.125504 0.000000 0.000000
												CHANNELS 3 Xrotation Yrotation Zrotation
												End Site
												{
													OFFSET 2.125504 0.000000 -0.001254
												}
											}
										}
									}
								}
							}
						}
					}
				}
			}
		}
	}
	JOINT mixamorig:RightUpLeg
	{
		OFFSET -8.207800 -6.751701 -1.599544
		CHANNELS 6 Xposition Yposition Zposition Xrotation Yrotation Zrotation
		JOINT mixamorig:RightLeg
		{
			OFFSET 0.000000 -44.370155 0.345934
			CHANNELS 3 Xrotation Yrotation Zrotation
			JOINT mixamorig:RightFoot
			{
				OFFSET 0.000000 -44.423664 -3.043536
				CHANNELS 3 Xrotation Yrotation Zrotation
				JOINT mixamorig:RightToeBase
				{
					OFFSET 0.000000 -8.728685 10.710592
					CHANNELS 3 Xrotation Yrotation Zrotation
					JOINT mixamorig:RightToe_End
					{
						OFFSET 0.000000 -0.000664 9.278099
						CHANNELS 3 Xrotation Yrotation Zrotation
						End Site
						{
							OFFSET 0.000000 -0.000664 9.278101
						}
					}
				}
			}
		}
	}
	JOINT mixamorig:LeftUpLeg
	{
		OFFSET 8.207800 -6.751701 -1.599544
		CHANNELS 6 Xposition Yposition Zposition Xrotation Yrotation Zrotation
		JOINT mixamorig:LeftLeg
		{
			OFFSET 0.000000 -44.370049 0.346940
			CHANNELS 3 Xrotation Yrotation Zrotation
			JOINT mixamorig:LeftFoot
			{
				OFFSET 0.000000 -44.423603 -3.044389
				CHANNELS 3 Xrotation Yrotation Zrotation
				JOINT mixamorig:LeftToeBase
				{
					OFFSET 0.000000 -8.728686 10.710592
					CHANNELS 3 Xrotation Yrotation Zrotation
					JOINT mixamorig:LeftToe_End
					{
						OFFSET 0.000000 -0.000680 9.278100
						CHANNELS 3 Xrotation Yrotation Zrotation
						End Site
						{
							OFFSET 0.000000 -0.000680 9.278100
						}
					}
				}
			}
		}
	}
}
MOTION
Frames: 4
Frame Time: 0.033333
-0.112591 101.268036 1.593456 -2.518211 -2.349344 0.225059 0.000000 10.181562 0.131525 -0.155248 -0.162097 -1.746767 1.207619 -1.076898 -0.456329 1.213295 -1.091899 -0.402790 -0.000001 16.740353 -2.049019 -11.165235 -0.019884 1.427958 0.000001 9.617837 1.684981 -6.185141 1.980910 4.456433 -0.000000 22.037369 7.501068 -0.000001 -0.000000 0.000000 -4.570000 11.014848 -2.160840 0.770352 -1.365199 10.992089 -27.474371 34.870015 74.764569 -0.001048 88.263912 0.001432 -11.094766 22.555411 -10.360771 -2.464794 -1.573989 2.681892 -21.141117 -11.985599 -22.103752 4.637175 -8.634137 -0.225407 -1.273736 0.137309 -2.094886 -0.000004 0.000004 0.000002 -9.108291 -0.517861 2.259790 0.064603 0.947614 -7.800548 -0.000001 -0.000005 0.000029 0.000006 -0.000002 0.000010 -0.000001 0.000000 -0.000001 -9.532498 0.000017 -0.000011 0.064603 0.947614 -7.800548 0.000008 -0.000006 0.000024 -0.000003 -0.000003 0.000011 0.000000 -0.000002 -0.000000 -9.103618 -0.043100 -1.865098 0.064603 0.947614 -7.800548 -0.000001 -0.000005 0.000029 0.000002 -0.000003 0.000014 0.000001 -0.000004 -0.000001 -8.076705 -0.486712 -3.806304 0.064596 0.947614 -7.800546 0.000001 -0.000003 0.000029 -0.000006 0.000008 0.000011 -0.000000 -0.000002 -0.000000 4.570396 11.014630 -2.160815 0.427182 8.237083 -11.231937 -30.115810 -47.478421 -82.811467 0.002167 -89.700506 0.002012 9.325278 -10.179768 32.476655 2.466087 -1.576228 2.681691 0.043145 3.210977 -2.318966 -7.059600 7.294289 13.761831 -6.165899 1.834316 8.390462 0.000003 0.000004 -0.000001 9.109292 -0.518009 2.259900 -0.000002 -0.000002 0.000009 0.000016 0.000008 -0.000032 -0.000013 -0.000003 -0.000002 0.000000 -0.000002 0.000001 9.533384 -0.000001 -0.000007 -0.000004 -0.001926 0.015990 0.000006 0.001930 -0.016012 -0.000003 0.000002 -0.000006 -0.000000 -0.000005 0.000001 9.104493 -0.043003 -1.865104 -0.000002 -0.000002 0.000009 0.000016 0.000011 -0.000032 -0.000013 0.000000 -0.000002 -0.000000 -0.000001 0.000001 8.077787 -0.486897 -3.806312 -0.018090 4.054251 0.511074 -0.018085 -4.054250 -0.511117 -0.000010 -0.000005 -0.000004 0.000000 -0.000004 -0.000000 -8.207802 -6.751700 -1.599544 -6.758905 -8.241648 -8.263562 19.850587 -9.409275 -4.727849 -9.037475 -2.515311 12.832729 -0.000020 -0.000009 0.000002 -0.000000 0.000000 0.000000 8.207801 -6.751678 -1.599544 -7.525967 8.804901 4.643929 23.441730 9.980844 2.731094 -11.582107 8.008100 -8.376982 -0.000060 0.000007 -0.000004 -0.000000 0.000002 0.000000 
-0.059390 101.266243 1.572890 -2.507463 -2.218972 0.299204 0.000000 10.181560 0.131523 -0.227447 -0.189536 -1.878809 1.156304 -1.167108 -0.703405 1.167124 -1.187593 -0.646495 -0.000000 16.740362 -2.049016 -10.848678 -0.168861 1.745588 0.000002 9.617855 1.684985 -6.099593 1.760457 4.444509 -0.000001 22.037384 7.501080 -0.000000 -0.000000 0.000000 -4.569996 11.014846 -2.160840 0.798607 -1.258396 11.282591 -26.951930 29.401301 73.880558 -0.001845 88.484035 0.002221 -11.390511 23.557268 -7.061822 -2.464802 -1.573989 2.681907 -21.141112 -11.985600 -22.103752 4.637179 -8.634130 -0.225403 -1.273733 0.137307 -2.094889 -0.000004 -0.000002 -0.000001 -9.108298 -0.517864 2.259797 0.064602 0.947620 -7.800546 -0.000000 -0.000005 0.000029 0.000005 -0.000005 0.000011 -0.000001 0.000002 0.000000 -9.532507 0.000015 0.000003 0.064602 0.947620 -7.800546 0.000008 -0.000006 0.000023 -0.000004 -0.000006 0.000012 0.000000 0.000002 0.000000 -9.103607 -0.043087 -1.865098 0.064602 0.947620 -7.800546 -0.000000 -0.000005 0.000029 -0.000000 -0.000008 0.000015 0.000000 0.000001 0.000000 -8.076697 -0.486715 -3.806309 0.064594 0.947618 -7.800546 0.000002 -0.000001 0.000029 -0.000007 0.000006 0.000010 0.000000 0.000001 -0.000000 4.570401 11.014657 -2.160815 0.438596 7.793443 -10.976423 -29.509631 -44.382682 -81.495317 -0.000222 -89.563396 -0.000440 13.980630 -8.056242 28.478076 2.466089 -1.576225 2.681694 0.043145 3.210973 -2.318966 -7.059602 7.294289 13.761831 -6.165899 1.834323 8.390461 0.000001 0.000000 -0.000001 9.109308 -0.518010 2.259904 -0.000001 -0.000003 0.000008 0.000016 0.000010 -0.000032 -0.000013 -0.000005 -0.000002 -0.000000 -0.000003 0.000000 9.533400 -0.000002 0.000001 -0.000004 -0.001927 0.015990 0.000007 0.001931 -0.016012 -0.000003 0.000003 -0.000006 -0.000000 -0.000003 0.000001 9.104518 -0.043004 -1.865097 -0.000001 -0.000003 0.000008 0.000016 0.000012 -0.000032 -0.000013 -0.000005 -0.000003 0.000001 -0.000004 -0.000000 8.077811 -0.486898 -3.806302 -0.018089 4.054256 0.511073 -0.018085 -4.054247 -0.511117 -0.000009 -0.000001 -0.000003 0.000001 -0.000002 -0.000000 -8.207801 -6.751715 -1.599543 -6.798048 -8.299158 -8.374421 19.880707 -9.407991 -4.728123 -9.026962 -2.593497 12.863789 -0.000019 -0.000007 0.000003 -0.000000 0.000000 0.000000 8.207800 -6.751696 -1.599544 -7.538105 8.756741 4.557548 23.424649 9.980377 2.715101 -11.573447 7.901322 -8.344151 -0.000062 0.000005 -0.000002 -0.000000 0.000000 0.000000 
-0.031430 101.273903 1.538357 -2.481300 -2.141142 0.342073 0.000000 10.181563 0.131524 -0.312204 -0.225744 -1.998204 1.058756 -1.275320 -0.888807 1.073611 -1.299922 -0.829573 0.000002 16.740400 -2.049014 -10.566156 -0.269953 1.905493 -0.000000 9.617874 1.684979 -5.730661 1.522425 4.474404 0.000001 22.037369 7.501070 -0.000000 -0.000000 0.000000 -4.570001 11.014863 -2.160839 0.829890 -1.081919 11.552573 -27.130754 22.224481 73.567886 -0.001592 88.204441 0.001786 -15.494363 24.950136 -1.848112 -2.464794 -1.573985 2.681914 -21.141116 -11.985597 -22.103754 4.637179 -8.634138 -0.225406 -1.273736 0.137311 -2.094887 -0.000004 0.000006 -0.000002 -9.108283 -0.517864 2.259805 0.064602 0.947622 -7.800546 0.000000 -0.000008 0.000030 0.000005 -0.000009 0.000010 0.000000 -0.000002 -0.000000 -9.532476 0.000015 0.000003 0.064603 0.947622 -7.800546 0.000009 -0.000008 0.000024 -0.000004 -0.000006 0.000011 -0.000000 -0.000002 -0.000000 -9.103592 -0.043087 -1.865098 0.064602 0.947622 -7.800546 0.000000 -0.000008 0.000030 0.000000 -0.000011 0.000014 0.000000 -0.000003 -0.000000 -8.076688 -0.486715 -3.806294 0.064595 0.947617 -7.800546 0.000001 0.000001 0.000030 -0.000007 0.000003 0.000010 0.000001 0.000004 0.000000 4.570399 11.014694 -2.160813 0.445164 7.492344 -10.757183 -29.378054 -39.560572 -81.238133 -0.000147 -89.090413 -0.000184 15.991276 -5.716632 26.650119 2.466089 -1.576206 2.681684 0.043145 3.210981 -2.318964 -7.059599 7.294291 13.761836 -6.165905 1.834311 8.390469 0.000002 0.000004 -0.000001 9.109316 -0.518008 2.259906 -0.000003 -0.000000 0.000009 0.000016 0.000009 -0.000032 -0.000013 -0.000000 -0.000003 -0.000001 0.000001 -0.000000 9.533408 0.000000 -0.000001 -0.000005 -0.001924 0.015989 0.000006 0.001933 -0.016011 -0.000003 0.000006 -0.000007 -0.000001 -0.000001 0.000000 9.104502 -0.043002 -1.865111 -0.000003 -0.000000 0.000009 0.000016 0.000007 -0.000032 -0.000014 -0.000000 -0.000003 -0.000000 0.000000 -0.000000 8.077797 -0.486898 -3.806304 -0.018092 4.054257 0.511073 -0.018084 -4.054247 -0.511116 -0.000010 -0.000003 -0.000004 0.000001 -0.000007 0.000000 -8.207801 -6.751711 -1.599544 -6.833060 -8.315269 -8.442034 19.864640 -9.398672 -4.699792 -8.993421 -2.641432 12.856458 -0.000021 -0.000007 0.000002 -0.000000 0.000002 0.000000 8.207801 -6.751707 -1.599545 -7.548768 8.751720 4.533991 23.361525 9.979066 2.698621 -11.531790 7.802947 -8.335011 -0.000060 0.000003 -0.000002 -0.000000 -0.000002 -0.000000 
-0.020719 101.284210 1.493138 -2.440298 -2.159323 0.350060 0.000000 10.181556 0.131524 -0.391773 -0.246170 -2.068951 0.950545 -1.345975 -0.970480 0.967608 -1.372399 -0.910330 0.000001 16.740345 -2.049021 -10.369582 -0.316581 1.900491 0.000001 9.617862 1.684974 -5.342747 1.290547 4.416675 -0.000000 22.037354 7.501073 0.000000 -0.000000 -0.000000 -4.570001 11.014856 -2.160841 0.859138 -0.897213 11.782261 -27.896123 15.767806 74.132264 -0.001043 87.703816 0.001239 -19.580530 25.733069 0.964820 -2.464805 -1.573985 2.681903 -21.141117 -11.985601 -22.103756 4.637176 -8.634136 -0.225404 -1.273736 0.137312 -2.094889 -0.000003 -0.000002 -0.000001 -9.108306 -0.517880 2.259807 0.064601 0.947615 -7.800547 0.000000 -0.000007 0.000029 0.000005 -0.000007 0.000010 -0.000001 -0.000004 -0.000001 -9.532514 -0.000001 0.000006 0.064601 0.947615 -7.800547 0.000008 -0.000007 0.000023 -0.000004 -0.000008 0.000012 0.000001 0.000002 0.000000 -9.103610 -0.043087 -1.865098 0.064601 0.947615 -7.800547 0.000000 -0.000007 0.000029 -0.000000 -0.000009 0.000014 -0.000001 -0.000001 -0.000001 -8.076696 -0.486715 -3.806296 0.064593 0.947613 -7.800546 0.000000 -0.000001 0.000029 -0.000008 -0.000000 0.000010 -0.000002 -0.000001 -0.000000 4.570397 11.014650 -2.160816 0.443449 7.485338 -10.727797 -29.429335 -34.760209 -81.849879 0.000903 -88.807171 0.000803 15.338172 -4.558492 25.930028 2.466098 -1.576225 2.681707 0.043145 3.210976 -2.318967 -7.059600 7.294289 13.761831 -6.165901 1.834323 8.390471 0.000000 0.000003 0.000003 9.109307 -0.518009 2.259905 -0.000002 0.000000 0.000009 0.000016 0.000006 -0.000032 -0.000013 -0.000001 -0.000002 0.000000 -0.000001 0.000000 9.533407 -0.000001 0.000001 -0.000005 -0.001922 0.015990 0.000006 0.001932 -0.016011 -0.000003 0.000007 -0.000006 0.000000 0.000000 0.000000 9.104524 -0.043003 -1.865083 -0.000002 0.000000 0.000009 0.000017 0.000006 -0.000032 -0.000013 -0.000001 -0.000003 0.000000 -0.000007 0.000000 8.077802 -0.486898 -3.806298 -0.018091 4.054261 0.511073 -0.018085 -4.054247 -0.511117 -0.000010 -0.000000 -0.000004 0.000000 -0.000004 -0.000000 -8.207801 -6.751704 -1.599543 -6.885906 -8.302583 -8.450753 19.813974 -9.396464 -4.703147 -8.939530 -2.606538 12.851407 -0.000015 -0.000007 0.000003 -0.000000 -0.000002 -0.000000 8.207800 -6.751695 -1.599544 -7.559028 8.710963 4.497681 23.277916 9.982495 2.757566 -11.485417 7.744091 -8.367336 -0.000061 0.000005 -0.000002 -0.000000 0.000002 0.000000 
